<svg xmlns="http://www.w3.org/2000/svg" width="1024" height="1024" viewBox="-20 -20 1064 1064" shape-rendering="geometricPrecision">
  <g opacity="0.99607843">
    <path d="M 116.000 77.000 L 115.000 78.000 L 115.000 79.000 L 114.000 80.000 L 114.000 81.000 L 113.000 82.000 L 113.000 83.000 L 113.000 84.000 L 112.000 85.000 L 112.000 86.000 L 112.000 87.000 L 111.000 88.000 L 111.000 89.000 L 110.000 90.000 L 110.000 91.000 L 110.000 92.000 L 109.000 93.000 L 109.000 94.000 L 109.000 95.000 L 108.000 96.000 L 108.000 97.000 L 108.000 98.000 L 107.000 99.000 L 107.000 100.000 L 106.000 101.000 L 106.000 102.000 L 106.000 103.000 L 106.000 104.000 L 105.000 105.000 L 105.000 106.000 L 105.000 107.000 L 104.000 108.000 L 104.000 109.000 L 104.000 110.000 L 104.000 111.000 L 103.000 112.000 L 103.000 113.000 L 103.000 114.000 L 102.000 115.000 L 102.000 116.000 L 102.000 117.000 L 102.000 118.000 L 101.000 119.000 L 101.000 120.000 L 101.000 121.000 L 101.000 122.000 L 100.000 123.000 L 100.000 124.000 L 100.000 125.000 L 100.000 126.000 L 99.000 127.000 L 99.000 128.000 L 99.000 129.000 L 99.000 130.000 L 98.000 131.000 L 98.000 132.000 L 98.000 133.000 L 98.000 134.000 L 98.000 135.000 L 97.000 136.000 L 97.000 137.000 L 97.000 138.000 L 97.000 139.000 L 97.000 140.000 L 96.000 141.000 L 96.000 142.000 L 96.000 143.000 L 96.000 144.000 L 96.000 145.000 L 96.000 146.000 L 95.000 147.000 L 95.000 148.000 L 95.000 149.000 L 95.000 150.000 L 95.000 151.000 L 94.000 152.000 L 94.000 153.000 L 94.000 154.000 L 94.000 155.000 L 94.000 156.000 L 94.000 157.000 L 94.000 158.000 L 93.000 159.000 L 93.000 160.000 L 93.000 161.000 L 93.000 162.000 L 93.000 163.000 L 93.000 164.000 L 93.000 165.000 L 92.000 166.000 L 92.000 167.000 L 92.000 168.000 L 92.000 169.000 L 92.000 170.000 L 92.000 171.000 L 92.000 172.000 L 92.000 173.000 L 92.000 174.000 L 91.000 175.000 L 91.000 176.000 L 91.000 177.000 L 91.000 178.000 L 91.000 179.000 L 91.000 180.000 L 91.000 181.000 L 91.000 182.000 L 91.000 183.000 L 91.000 184.000 L 90.000 185.000 L 90.000 186.000 L 90.000 187.000 L 90.000 188.000 L 90.000 189.000 L 90.000 190.000 L 90.000 191.000 L 90.000 192.000 L 90.000 193.000 L 90.000 194.000 L 90.000 195.000 L 90.000 196.000 L 90.000 197.000 L 90.000 198.000 L 90.000 199.000 L 90.000 200.000 L 90.000 201.000 L 89.000 202.000 L 89.000 203.000 L 89.000 204.000 L 89.000 205.000 L 89.000 206.000 L 89.000 207.000 L 89.000 208.000 L 89.000 209.000 L 89.000 210.000 L 89.000 211.000 L 89.000 212.000 L 89.000 213.000 L 89.000 214.000 L 89.000 215.000 L 89.000 216.000 L 89.000 217.000 L 89.000 218.000 L 89.000 219.000 L 89.000 220.000 L 89.000 221.000 L 89.000 222.000 L 89.000 223.000 L 89.000 224.000 L 89.000 225.000 L 89.000 226.000 L 89.000 227.000 L 89.000 228.000 L 89.000 229.000 L 89.000 230.000 L 89.000 231.000 L 89.000 232.000 L 89.000 233.000 L 89.000 234.000 L 89.000 235.000 L 89.000 236.000 L 89.000 237.000 L 90.000 238.000 L 90.000 239.000 L 90.000 240.000 L 90.000 241.000 L 90.000 242.000 L 90.000 243.000 L 90.000 244.000 L 90.000 245.000 L 90.000 246.000 L 90.000 247.000 L 90.000 248.000 L 90.000 249.000 L 90.000 250.000 L 90.000 251.000 L 90.000 252.000 L 90.000 253.000 L 91.000 254.000 L 91.000 255.000 L 91.000 256.000 L 91.000 257.000 L 91.000 258.000 L 91.000 259.000 L 91.000 260.000 L 91.000 261.000 L 91.000 262.000 L 91.000 263.000 L 91.000 264.000 L 91.000 265.000 L 91.000 266.000 L 92.000 267.000 L 92.000 268.000 L 92.000 269.000 L 92.000 270.000 L 92.000 271.000 L 91.000 272.000 L 90.000 273.000 L 89.000 274.000 L 89.000 275.000 L 88.000 276.000 L 87.000 277.000 L 86.000 278.000 L 85.000 279.000 L 84.000 280.000 L 83.000 281.000 L 82.000 282.000 L 82.000 283.000 L 81.000 284.000 L 80.000 285.000 L 79.000 286.000 L 78.000 287.000 L 77.000 288.000 L 77.000 289.000 L 76.000 290.000 L 75.000 291.000 L 74.000 292.000 L 73.000 293.000 L 73.000 294.000 L 72.000 295.000 L 71.000 296.000 L 70.000 297.000 L 69.000 298.000 L 69.000 299.000 L 68.000 300.000 L 67.000 301.000 L 66.000 302.000 L 66.000 303.000 L 65.000 304.000 L 64.000 305.000 L 64.000 306.000 L 63.000 307.000 L 62.000 308.000 L 61.000 309.000 L 61.000 310.000 L 60.000 311.000 L 59.000 312.000 L 59.000 313.000 L 58.000 314.000 L 57.000 315.000 L 57.000 316.000 L 56.000 317.000 L 55.000 318.000 L 55.000 319.000 L 54.000 320.000 L 53.000 321.000 L 53.000 322.000 L 52.000 323.000 L 51.000 324.000 L 51.000 325.000 L 50.000 326.000 L 49.000 327.000 L 49.000 328.000 L 48.000 329.000 L 48.000 330.000 L 47.000 331.000 L 46.000 332.000 L 46.000 333.000 L 45.000 334.000 L 45.000 335.000 L 44.000 336.000 L 44.000 337.000 L 43.000 338.000 L 43.000 339.000 L 42.000 340.000 L 41.000 341.000 L 41.000 342.000 L 40.000 343.000 L 40.000 344.000 L 39.000 345.000 L 39.000 346.000 L 38.000 347.000 L 38.000 348.000 L 37.000 349.000 L 37.000 350.000 L 36.000 351.000 L 36.000 352.000 L 35.000 353.000 L 35.000 354.000 L 34.000 355.000 L 34.000 356.000 L 33.000 357.000 L 33.000 358.000 L 32.000 359.000 L 32.000 360.000 L 31.000 361.000 L 31.000 362.000 L 30.000 363.000 L 30.000 364.000 L 29.000 365.000 L 29.000 366.000 L 28.000 367.000 L 28.000 368.000 L 28.000 369.000 L 27.000 370.000 L 27.000 371.000 L 26.000 372.000 L 26.000 373.000 L 25.000 374.000 L 25.000 375.000 L 25.000 376.000 L 24.000 377.000 L 24.000 378.000 L 23.000 379.000 L 23.000 380.000 L 23.000 381.000 L 22.000 382.000 L 22.000 383.000 L 21.000 384.000 L 21.000 385.000 L 21.000 386.000 L 20.000 387.000 L 20.000 388.000 L 20.000 389.000 L 19.000 390.000 L 19.000 391.000 L 18.000 392.000 L 18.000 393.000 L 18.000 394.000 L 17.000 395.000 L 17.000 396.000 L 17.000 397.000 L 16.000 398.000 L 16.000 399.000 L 16.000 400.000 L 15.000 401.000 L 15.000 402.000 L 15.000 403.000 L 15.000 404.000 L 14.000 405.000 L 14.000 406.000 L 14.000 407.000 L 13.000 408.000 L 13.000 409.000 L 13.000 410.000 L 12.000 411.000 L 12.000 412.000 L 12.000 413.000 L 12.000 414.000 L 11.000 415.000 L 11.000 416.000 L 11.000 417.000 L 11.000 418.000 L 10.000 419.000 L 10.000 420.000 L 10.000 421.000 L 10.000 422.000 L 9.000 423.000 L 9.000 424.000 L 9.000 425.000 L 9.000 426.000 L 8.000 427.000 L 8.000 428.000 L 8.000 429.000 L 8.000 430.000 L 8.000 431.000 L 7.000 432.000 L 7.000 433.000 L 7.000 434.000 L 7.000 435.000 L 7.000 436.000 L 6.000 437.000 L 6.000 438.000 L 6.000 439.000 L 6.000 440.000 L 6.000 441.000 L 5.000 442.000 L 5.000 443.000 L 5.000 444.000 L 5.000 445.000 L 5.000 446.000 L 4.000 447.000 L 4.000 448.000 L 4.000 449.000 L 4.000 450.000 L 4.000 451.000 L 4.000 452.000 L 4.000 453.000 L 3.000 454.000 L 3.000 455.000 L 3.000 456.000 L 3.000 457.000 L 3.000 458.000 L 3.000 459.000 L 3.000 460.000 L 2.000 461.000 L 2.000 462.000 L 2.000 463.000 L 2.000 464.000 L 2.000 465.000 L 2.000 466.000 L 2.000 467.000 L 2.000 468.000 L 2.000 469.000 L 1.000 470.000 L 1.000 471.000 L 1.000 472.000 L 1.000 473.000 L 1.000 474.000 L 1.000 475.000 L 1.000 476.000 L 1.000 477.000 L 1.000 478.000 L 1.000 479.000 L 1.000 480.000 L 1.000 481.000 L 0.000 482.000 L 0.000 483.000 L 0.000 484.000 L 0.000 485.000 L 0.000 486.000 L 0.000 487.000 L 0.000 488.000 L 0.000 489.000 L 0.000 490.000 L 0.000 491.000 L 0.000 492.000 L 0.000 493.000 L 0.000 494.000 L 0.000 495.000 L 0.000 496.000 L 0.000 497.000 L 0.000 498.000 L 0.000 499.000 L 0.000 500.000 L 0.000 501.000 L 0.000 502.000 L 0.000 503.000 L 0.000 504.000 L 0.000 505.000 L 0.000 506.000 L 0.000 507.000 L 0.000 508.000 L 0.000 509.000 L 0.000 510.000 L 0.000 511.000 L 0.000 512.000 L 0.000 513.000 L 0.000 514.000 L 0.000 515.000 L 0.000 516.000 L 0.000 517.000 L 0.000 518.000 L 0.000 519.000 L 0.000 520.000 L 0.000 521.000 L 0.000 522.000 L 0.000 523.000 L 0.000 524.000 L 0.000 525.000 L 1.000 526.000 L 1.000 527.000 L 1.000 528.000 L 1.000 529.000 L 1.000 530.000 L 1.000 531.000 L 1.000 532.000 L 1.000 533.000 L 1.000 534.000 L 1.000 535.000 L 2.000 536.000 L 2.000 537.000 L 2.000 538.000 L 2.000 539.000 L 2.000 540.000 L 2.000 541.000 L 2.000 542.000 L 2.000 543.000 L 2.000 544.000 L 2.000 545.000 L 3.000 546.000 L 3.000 547.000 L 3.000 548.000 L 3.000 549.000 L 3.000 550.000 L 3.000 551.000 L 3.000 552.000 L 3.000 553.000 L 4.000 554.000 L 4.000 555.000 L 4.000 556.000 L 4.000 557.000 L 4.000 558.000 L 4.000 559.000 L 4.000 560.000 L 5.000 561.000 L 5.000 562.000 L 5.000 563.000 L 5.000 564.000 L 5.000 565.000 L 6.000 566.000 L 6.000 567.000 L 6.000 568.000 L 6.000 569.000 L 6.000 570.000 L 6.000 571.000 L 7.000 572.000 L 7.000 573.000 L 7.000 574.000 L 7.000 575.000 L 8.000 576.000 L 8.000 577.000 L 8.000 578.000 L 8.000 579.000 L 8.000 580.000 L 9.000 581.000 L 9.000 582.000 L 9.000 583.000 L 9.000 584.000 L 10.000 585.000 L 10.000 586.000 L 10.000 587.000 L 10.000 588.000 L 11.000 589.000 L 11.000 590.000 L 11.000 591.000 L 11.000 592.000 L 12.000 593.000 L 12.000 594.000 L 12.000 595.000 L 12.000 596.000 L 13.000 597.000 L 13.000 598.000 L 13.000 599.000 L 14.000 600.000 L 14.000 601.000 L 14.000 602.000 L 15.000 603.000 L 15.000 604.000 L 15.000 605.000 L 15.000 606.000 L 16.000 607.000 L 16.000 608.000 L 16.000 609.000 L 17.000 610.000 L 17.000 611.000 L 17.000 612.000 L 18.000 613.000 L 18.000 614.000 L 18.000 615.000 L 19.000 616.000 L 19.000 617.000 L 19.000 618.000 L 20.000 619.000 L 20.000 620.000 L 20.000 621.000 L 21.000 622.000 L 21.000 623.000 L 21.000 624.000 L 22.000 625.000 L 22.000 626.000 L 23.000 627.000 L 23.000 628.000 L 23.000 629.000 L 24.000 630.000 L 24.000 631.000 L 24.000 632.000 L 25.000 633.000 L 25.000 634.000 L 26.000 635.000 L 26.000 636.000 L 26.000 637.000 L 27.000 638.000 L 27.000 639.000 L 28.000 640.000 L 28.000 641.000 L 28.000 642.000 L 29.000 643.000 L 29.000 644.000 L 30.000 645.000 L 30.000 646.000 L 31.000 647.000 L 31.000 648.000 L 32.000 649.000 L 32.000 650.000 L 33.000 651.000 L 33.000 652.000 L 33.000 653.000 L 34.000 654.000 L 34.000 655.000 L 35.000 656.000 L 35.000 657.000 L 36.000 658.000 L 36.000 659.000 L 37.000 660.000 L 37.000 661.000 L 38.000 662.000 L 38.000 663.000 L 39.000 664.000 L 39.000 665.000 L 40.000 666.000 L 40.000 667.000 L 41.000 668.000 L 41.000 669.000 L 42.000 670.000 L 42.000 671.000 L 43.000 672.000 L 43.000 673.000 L 44.000 674.000 L 44.000 675.000 L 45.000 676.000 L 45.000 677.000 L 46.000 678.000 L 47.000 679.000 L 47.000 680.000 L 48.000 681.000 L 48.000 682.000 L 49.000 683.000 L 49.000 684.000 L 50.000 685.000 L 51.000 686.000 L 51.000 687.000 L 52.000 688.000 L 52.000 689.000 L 53.000 690.000 L 54.000 691.000 L 54.000 692.000 L 55.000 693.000 L 55.000 694.000 L 56.000 695.000 L 57.000 696.000 L 57.000 697.000 L 58.000 698.000 L 59.000 699.000 L 59.000 700.000 L 60.000 701.000 L 60.000 702.000 L 61.000 703.000 L 62.000 704.000 L 62.000 705.000 L 63.000 706.000 L 64.000 707.000 L 65.000 708.000 L 65.000 709.000 L 66.000 710.000 L 67.000 711.000 L 67.000 712.000 L 68.000 713.000 L 69.000 714.000 L 69.000 715.000 L 70.000 716.000 L 71.000 717.000 L 72.000 718.000 L 72.000 719.000 L 73.000 720.000 L 74.000 721.000 L 74.000 722.000 L 75.000 723.000 L 76.000 724.000 L 77.000 725.000 L 77.000 726.000 L 78.000 727.000 L 79.000 728.000 L 80.000 729.000 L 81.000 730.000 L 81.000 731.000 L 82.000 732.000 L 83.000 733.000 L 84.000 734.000 L 85.000 735.000 L 85.000 736.000 L 86.000 737.000 L 87.000 738.000 L 88.000 739.000 L 89.000 740.000 L 89.000 741.000 L 90.000 742.000 L 91.000 743.000 L 92.000 744.000 L 93.000 745.000 L 94.000 746.000 L 95.000 747.000 L 96.000 748.000 L 96.000 749.000 L 97.000 750.000 L 98.000 751.000 L 99.000 752.000 L 100.000 753.000 L 101.000 754.000 L 102.000 755.000 L 103.000 756.000 L 104.000 757.000 L 105.000 758.000 L 106.000 759.000 L 107.000 760.000 L 108.000 761.000 L 108.000 762.000 L 109.000 762.000 L 110.000 763.000 L 111.000 764.000 L 112.000 765.000 L 113.000 766.000 L 114.000 767.000 L 115.000 768.000 L 116.000 769.000 L 117.000 770.000 L 118.000 771.000 L 119.000 772.000 L 120.000 773.000 L 121.000 774.000 L 122.000 775.000 L 123.000 776.000 L 124.000 777.000 L 125.000 778.000 L 126.000 779.000 L 127.000 780.000 L 128.000 780.000 L 129.000 781.000 L 130.000 782.000 L 131.000 783.000 L 132.000 784.000 L 133.000 785.000 L 134.000 786.000 L 135.000 787.000 L 136.000 787.000 L 137.000 788.000 L 138.000 789.000 L 139.000 790.000 L 140.000 791.000 L 141.000 792.000 L 142.000 792.000 L 143.000 793.000 L 144.000 794.000 L 145.000 795.000 L 146.000 795.000 L 147.000 796.000 L 148.000 797.000 L 149.000 798.000 L 150.000 799.000 L 151.000 799.000 L 152.000 800.000 L 153.000 801.000 L 154.000 802.000 L 155.000 802.000 L 156.000 803.000 L 157.000 804.000 L 158.000 805.000 L 159.000 805.000 L 160.000 806.000 L 161.000 807.000 L 162.000 808.000 L 163.000 808.000 L 164.000 809.000 L 165.000 810.000 L 166.000 810.000 L 167.000 811.000 L 168.000 812.000 L 169.000 812.000 L 170.000 813.000 L 171.000 814.000 L 172.000 814.000 L 173.000 815.000 L 174.000 816.000 L 175.000 816.000 L 176.000 817.000 L 177.000 818.000 L 178.000 818.000 L 179.000 819.000 L 180.000 820.000 L 181.000 820.000 L 182.000 821.000 L 183.000 821.000 L 184.000 822.000 L 185.000 823.000 L 186.000 823.000 L 187.000 824.000 L 188.000 824.000 L 189.000 825.000 L 190.000 826.000 L 191.000 826.000 L 192.000 827.000 L 193.000 827.000 L 194.000 828.000 L 195.000 828.000 L 196.000 829.000 L 197.000 830.000 L 198.000 830.000 L 199.000 831.000 L 200.000 831.000 L 201.000 832.000 L 202.000 832.000 L 203.000 833.000 L 204.000 833.000 L 205.000 834.000 L 206.000 834.000 L 207.000 835.000 L 208.000 835.000 L 209.000 836.000 L 210.000 837.000 L 211.000 837.000 L 212.000 838.000 L 213.000 838.000 L 214.000 839.000 L 215.000 839.000 L 216.000 839.000 L 217.000 840.000 L 218.000 840.000 L 219.000 841.000 L 220.000 841.000 L 221.000 842.000 L 222.000 842.000 L 223.000 843.000 L 224.000 843.000 L 225.000 844.000 L 226.000 844.000 L 227.000 845.000 L 228.000 845.000 L 229.000 845.000 L 230.000 846.000 L 231.000 846.000 L 232.000 847.000 L 233.000 847.000 L 234.000 848.000 L 235.000 848.000 L 236.000 849.000 L 237.000 849.000 L 238.000 849.000 L 239.000 850.000 L 240.000 850.000 L 241.000 850.000 L 242.000 851.000 L 243.000 851.000 L 244.000 852.000 L 245.000 852.000 L 246.000 852.000 L 247.000 853.000 L 248.000 853.000 L 249.000 854.000 L 250.000 854.000 L 251.000 854.000 L 252.000 855.000 L 253.000 855.000 L 254.000 855.000 L 255.000 856.000 L 256.000 856.000 L 257.000 856.000 L 258.000 857.000 L 259.000 857.000 L 260.000 857.000 L 261.000 858.000 L 262.000 858.000 L 263.000 858.000 L 264.000 859.000 L 265.000 859.000 L 266.000 859.000 L 267.000 860.000 L 268.000 860.000 L 269.000 860.000 L 270.000 860.000 L 271.000 861.000 L 272.000 861.000 L 273.000 861.000 L 274.000 862.000 L 275.000 862.000 L 276.000 862.000 L 277.000 862.000 L 278.000 863.000 L 279.000 863.000 L 280.000 863.000 L 281.000 864.000 L 282.000 864.000 L 283.000 864.000 L 284.000 864.000 L 285.000 865.000 L 286.000 865.000 L 287.000 865.000 L 288.000 865.000 L 289.000 865.000 L 290.000 866.000 L 291.000 866.000 L 292.000 866.000 L 293.000 866.000 L 294.000 867.000 L 295.000 867.000 L 296.000 867.000 L 297.000 867.000 L 298.000 868.000 L 299.000 868.000 L 300.000 868.000 L 301.000 868.000 L 302.000 868.000 L 303.000 869.000 L 304.000 869.000 L 305.000 869.000 L 306.000 869.000 L 307.000 869.000 L 308.000 869.000 L 309.000 869.000 L 310.000 870.000 L 311.000 870.000 L 312.000 870.000 L 313.000 870.000 L 314.000 870.000 L 315.000 870.000 L 316.000 870.000 L 317.000 871.000 L 318.000 871.000 L 319.000 871.000 L 320.000 871.000 L 321.000 871.000 L 322.000 871.000 L 323.000 872.000 L 324.000 872.000 L 325.000 872.000 L 326.000 872.000 L 327.000 872.000 L 328.000 872.000 L 329.000 872.000 L 330.000 872.000 L 331.000 872.000 L 332.000 873.000 L 333.000 873.000 L 334.000 873.000 L 335.000 873.000 L 336.000 873.000 L 337.000 873.000 L 338.000 873.000 L 339.000 873.000 L 340.000 873.000 L 341.000 873.000 L 342.000 873.000 L 343.000 873.000 L 344.000 873.000 L 345.000 874.000 L 346.000 874.000 L 347.000 874.000 L 348.000 874.000 L 349.000 874.000 L 350.000 874.000 L 351.000 874.000 L 352.000 874.000 L 353.000 874.000 L 354.000 874.000 L 355.000 874.000 L 356.000 874.000 L 357.000 874.000 L 358.000 874.000 L 359.000 874.000 L 360.000 874.000 L 361.000 874.000 L 362.000 874.000 L 363.000 874.000 L 364.000 874.000 L 365.000 875.000 L 366.000 875.000 L 367.000 875.000 L 368.000 875.000 L 369.000 875.000 L 370.000 875.000 L 371.000 875.000 L 372.000 875.000 L 373.000 876.000 L 374.000 876.000 L 375.000 876.000 L 376.000 876.000 L 377.000 876.000 L 378.000 876.000 L 379.000 876.000 L 380.000 876.000 L 381.000 877.000 L 382.000 877.000 L 383.000 877.000 L 384.000 877.000 L 385.000 877.000 L 386.000 877.000 L 387.000 877.000 L 388.000 878.000 L 389.000 878.000 L 390.000 878.000 L 391.000 878.000 L 392.000 878.000 L 393.000 878.000 L 394.000 879.000 L 395.000 879.000 L 396.000 879.000 L 397.000 879.000 L 398.000 880.000 L 399.000 880.000 L 400.000 880.000 L 401.000 880.000 L 402.000 880.000 L 403.000 881.000 L 404.000 881.000 L 405.000 881.000 L 406.000 881.000 L 407.000 881.000 L 408.000 882.000 L 409.000 882.000 L 410.000 882.000 L 411.000 882.000 L 412.000 883.000 L 413.000 883.000 L 414.000 883.000 L 415.000 884.000 L 416.000 884.000 L 417.000 884.000 L 418.000 884.000 L 419.000 885.000 L 420.000 885.000 L 421.000 885.000 L 422.000 885.000 L 423.000 886.000 L 424.000 886.000 L 425.000 886.000 L 426.000 886.000 L 427.000 887.000 L 428.000 887.000 L 429.000 887.000 L 430.000 888.000 L 431.000 888.000 L 432.000 888.000 L 433.000 889.000 L 434.000 889.000 L 435.000 889.000 L 436.000 890.000 L 437.000 890.000 L 438.000 890.000 L 439.000 891.000 L 440.000 891.000 L 441.000 891.000 L 442.000 892.000 L 443.000 892.000 L 444.000 893.000 L 445.000 893.000 L 446.000 893.000 L 447.000 894.000 L 448.000 894.000 L 449.000 894.000 L 450.000 895.000 L 451.000 895.000 L 452.000 896.000 L 453.000 896.000 L 454.000 896.000 L 455.000 897.000 L 456.000 897.000 L 457.000 898.000 L 458.000 898.000 L 459.000 898.000 L 460.000 899.000 L 461.000 899.000 L 462.000 900.000 L 463.000 900.000 L 464.000 900.000 L 465.000 901.000 L 466.000 901.000 L 467.000 902.000 L 468.000 902.000 L 469.000 903.000 L 470.000 903.000 L 471.000 903.000 L 472.000 904.000 L 473.000 904.000 L 474.000 905.000 L 475.000 905.000 L 476.000 906.000 L 477.000 906.000 L 478.000 906.000 L 479.000 907.000 L 480.000 907.000 L 481.000 908.000 L 482.000 908.000 L 483.000 909.000 L 484.000 909.000 L 485.000 910.000 L 486.000 910.000 L 487.000 910.000 L 488.000 911.000 L 489.000 911.000 L 490.000 912.000 L 491.000 912.000 L 492.000 913.000 L 493.000 913.000 L 494.000 914.000 L 495.000 914.000 L 496.000 914.000 L 497.000 915.000 L 498.000 915.000 L 499.000 916.000 L 500.000 916.000 L 501.000 917.000 L 502.000 917.000 L 503.000 918.000 L 504.000 918.000 L 505.000 918.000 L 506.000 919.000 L 507.000 919.000 L 508.000 920.000 L 509.000 920.000 L 510.000 920.000 L 511.000 921.000 L 512.000 921.000 L 513.000 920.000 L 514.000 920.000 L 515.000 920.000 L 516.000 919.000 L 517.000 919.000 L 518.000 918.000 L 519.000 918.000 L 520.000 918.000 L 521.000 917.000 L 522.000 917.000 L 523.000 916.000 L 524.000 916.000 L 525.000 915.000 L 526.000 915.000 L 527.000 914.000 L 528.000 914.000 L 529.000 914.000 L 530.000 913.000 L 531.000 913.000 L 532.000 912.000 L 533.000 912.000 L 534.000 911.000 L 535.000 911.000 L 536.000 910.000 L 537.000 910.000 L 538.000 910.000 L 539.000 909.000 L 540.000 909.000 L 541.000 908.000 L 542.000 908.000 L 543.000 907.000 L 544.000 907.000 L 545.000 906.000 L 546.000 906.000 L 547.000 906.000 L 548.000 905.000 L 549.000 905.000 L 550.000 904.000 L 551.000 904.000 L 552.000 903.000 L 553.000 903.000 L 554.000 902.000 L 555.000 902.000 L 556.000 902.000 L 557.000 901.000 L 558.000 901.000 L 559.000 900.000 L 560.000 900.000 L 561.000 900.000 L 562.000 899.000 L 563.000 899.000 L 564.000 898.000 L 565.000 898.000 L 566.000 898.000 L 567.000 897.000 L 568.000 897.000 L 569.000 896.000 L 570.000 896.000 L 571.000 895.000 L 572.000 895.000 L 573.000 895.000 L 574.000 894.000 L 575.000 894.000 L 576.000 894.000 L 577.000 893.000 L 578.000 893.000 L 579.000 892.000 L 580.000 892.000 L 581.000 892.000 L 582.000 891.000 L 583.000 891.000 L 584.000 891.000 L 585.000 890.000 L 586.000 890.000 L 587.000 890.000 L 588.000 889.000 L 589.000 889.000 L 590.000 889.000 L 591.000 888.000 L 592.000 888.000 L 593.000 888.000 L 594.000 887.000 L 595.000 887.000 L 596.000 887.000 L 597.000 886.000 L 598.000 886.000 L 599.000 886.000 L 600.000 886.000 L 601.000 885.000 L 602.000 885.000 L 603.000 885.000 L 604.000 884.000 L 605.000 884.000 L 606.000 884.000 L 607.000 884.000 L 608.000 883.000 L 609.000 883.000 L 610.000 883.000 L 611.000 883.000 L 612.000 882.000 L 613.000 882.000 L 614.000 882.000 L 615.000 882.000 L 616.000 881.000 L 617.000 881.000 L 618.000 881.000 L 619.000 881.000 L 620.000 880.000 L 621.000 880.000 L 622.000 880.000 L 623.000 880.000 L 624.000 880.000 L 625.000 879.000 L 626.000 879.000 L 627.000 879.000 L 628.000 879.000 L 629.000 879.000 L 630.000 878.000 L 631.000 878.000 L 632.000 878.000 L 633.000 878.000 L 634.000 878.000 L 635.000 877.000 L 636.000 877.000 L 637.000 877.000 L 638.000 877.000 L 639.000 877.000 L 640.000 877.000 L 641.000 877.000 L 642.000 876.000 L 643.000 876.000 L 644.000 876.000 L 645.000 876.000 L 646.000 876.000 L 647.000 876.000 L 648.000 876.000 L 649.000 875.000 L 650.000 875.000 L 651.000 875.000 L 652.000 875.000 L 653.000 875.000 L 654.000 875.000 L 655.000 875.000 L 656.000 875.000 L 657.000 875.000 L 658.000 875.000 L 659.000 874.000 L 660.000 874.000 L 661.000 874.000 L 662.000 874.000 L 663.000 874.000 L 664.000 874.000 L 665.000 874.000 L 666.000 874.000 L 667.000 874.000 L 668.000 874.000 L 669.000 874.000 L 670.000 874.000 L 671.000 874.000 L 672.000 874.000 L 673.000 874.000 L 674.000 874.000 L 675.000 874.000 L 676.000 874.000 L 677.000 874.000 L 678.000 874.000 L 679.000 874.000 L 680.000 873.000 L 681.000 873.000 L 682.000 873.000 L 683.000 873.000 L 684.000 873.000 L 685.000 873.000 L 686.000 873.000 L 687.000 873.000 L 688.000 873.000 L 689.000 873.000 L 690.000 873.000 L 691.000 873.000 L 692.000 872.000 L 693.000 872.000 L 694.000 872.000 L 695.000 872.000 L 696.000 872.000 L 697.000 872.000 L 698.000 872.000 L 699.000 872.000 L 700.000 872.000 L 701.000 871.000 L 702.000 871.000 L 703.000 871.000 L 704.000 871.000 L 705.000 871.000 L 706.000 871.000 L 707.000 871.000 L 708.000 870.000 L 709.000 870.000 L 710.000 870.000 L 711.000 870.000 L 712.000 870.000 L 713.000 870.000 L 714.000 870.000 L 715.000 869.000 L 716.000 869.000 L 717.000 869.000 L 718.000 869.000 L 719.000 869.000 L 720.000 868.000 L 721.000 868.000 L 722.000 868.000 L 723.000 868.000 L 724.000 868.000 L 725.000 868.000 L 726.000 867.000 L 727.000 867.000 L 728.000 867.000 L 729.000 867.000 L 730.000 866.000 L 731.000 866.000 L 732.000 866.000 L 733.000 866.000 L 734.000 866.000 L 735.000 865.000 L 736.000 865.000 L 737.000 865.000 L 738.000 865.000 L 739.000 864.000 L 740.000 864.000 L 741.000 864.000 L 742.000 863.000 L 743.000 863.000 L 744.000 863.000 L 745.000 863.000 L 746.000 862.000 L 747.000 862.000 L 748.000 862.000 L 749.000 862.000 L 750.000 861.000 L 751.000 861.000 L 752.000 861.000 L 753.000 860.000 L 754.000 860.000 L 755.000 860.000 L 756.000 860.000 L 757.000 859.000 L 758.000 859.000 L 759.000 859.000 L 760.000 858.000 L 761.000 858.000 L 762.000 858.000 L 763.000 857.000 L 764.000 857.000 L 765.000 857.000 L 766.000 856.000 L 767.000 856.000 L 768.000 856.000 L 769.000 855.000 L 770.000 855.000 L 771.000 855.000 L 772.000 854.000 L 773.000 854.000 L 774.000 854.000 L 775.000 853.000 L 776.000 853.000 L 777.000 852.000 L 778.000 852.000 L 779.000 852.000 L 780.000 851.000 L 781.000 851.000 L 782.000 850.000 L 783.000 850.000 L 784.000 850.000 L 785.000 849.000 L 786.000 849.000 L 787.000 849.000 L 788.000 848.000 L 789.000 848.000 L 790.000 847.000 L 791.000 847.000 L 792.000 846.000 L 793.000 846.000 L 794.000 845.000 L 795.000 845.000 L 796.000 845.000 L 797.000 844.000 L 798.000 844.000 L 799.000 843.000 L 800.000 843.000 L 801.000 842.000 L 802.000 842.000 L 803.000 841.000 L 804.000 841.000 L 805.000 841.000 L 806.000 840.000 L 807.000 840.000 L 808.000 839.000 L 809.000 839.000 L 810.000 838.000 L 811.000 838.000 L 812.000 837.000 L 813.000 837.000 L 814.000 836.000 L 815.000 836.000 L 816.000 835.000 L 817.000 835.000 L 818.000 834.000 L 819.000 834.000 L 820.000 833.000 L 821.000 832.000 L 822.000 832.000 L 823.000 831.000 L 824.000 831.000 L 825.000 830.000 L 826.000 830.000 L 827.000 829.000 L 828.000 828.000 L 829.000 828.000 L 830.000 827.000 L 831.000 827.000 L 832.000 826.000 L 833.000 826.000 L 834.000 825.000 L 835.000 825.000 L 836.000 824.000 L 837.000 823.000 L 838.000 823.000 L 839.000 822.000 L 840.000 821.000 L 841.000 821.000 L 842.000 820.000 L 843.000 820.000 L 844.000 819.000 L 845.000 818.000 L 846.000 818.000 L 847.000 817.000 L 848.000 816.000 L 849.000 816.000 L 850.000 815.000 L 851.000 814.000 L 852.000 814.000 L 853.000 813.000 L 854.000 813.000 L 855.000 812.000 L 856.000 811.000 L 857.000 810.000 L 858.000 810.000 L 859.000 809.000 L 860.000 808.000 L 861.000 808.000 L 862.000 807.000 L 863.000 806.000 L 864.000 805.000 L 865.000 805.000 L 866.000 804.000 L 867.000 803.000 L 868.000 802.000 L 869.000 802.000 L 870.000 801.000 L 871.000 800.000 L 872.000 799.000 L 873.000 799.000 L 874.000 798.000 L 875.000 797.000 L 876.000 796.000 L 877.000 796.000 L 878.000 795.000 L 879.000 794.000 L 880.000 793.000 L 881.000 792.000 L 882.000 792.000 L 883.000 791.000 L 884.000 790.000 L 885.000 789.000 L 886.000 788.000 L 887.000 787.000 L 888.000 787.000 L 889.000 786.000 L 890.000 785.000 L 891.000 784.000 L 892.000 783.000 L 893.000 782.000 L 894.000 781.000 L 895.000 781.000 L 896.000 780.000 L 897.000 779.000 L 898.000 778.000 L 899.000 777.000 L 900.000 776.000 L 901.000 775.000 L 902.000 774.000 L 903.000 773.000 L 904.000 772.000 L 905.000 771.000 L 906.000 770.000 L 907.000 770.000 L 908.000 769.000 L 909.000 768.000 L 909.000 767.000 L 910.000 766.000 L 911.000 766.000 L 912.000 765.000 L 913.000 764.000 L 914.000 763.000 L 915.000 762.000 L 916.000 761.000 L 917.000 760.000 L 918.000 759.000 L 918.000 758.000 L 919.000 757.000 L 920.000 756.000 L 921.000 755.000 L 922.000 754.000 L 923.000 753.000 L 924.000 752.000 L 925.000 751.000 L 926.000 750.000 L 927.000 749.000 L 928.000 748.000 L 929.000 747.000 L 929.000 746.000 L 930.000 745.000 L 931.000 744.000 L 932.000 743.000 L 933.000 742.000 L 934.000 741.000 L 934.000 740.000 L 935.000 739.000 L 936.000 738.000 L 937.000 737.000 L 938.000 736.000 L 939.000 735.000 L 939.000 734.000 L 940.000 733.000 L 941.000 732.000 L 942.000 731.000 L 943.000 730.000 L 943.000 729.000 L 944.000 728.000 L 945.000 727.000 L 946.000 726.000 L 946.000 725.000 L 947.000 724.000 L 948.000 723.000 L 949.000 722.000 L 949.000 721.000 L 950.000 720.000 L 951.000 719.000 L 952.000 718.000 L 952.000 717.000 L 953.000 716.000 L 954.000 715.000 L 954.000 714.000 L 955.000 713.000 L 956.000 712.000 L 956.000 711.000 L 957.000 710.000 L 958.000 709.000 L 958.000 708.000 L 959.000 707.000 L 960.000 706.000 L 961.000 705.000 L 961.000 704.000 L 962.000 703.000 L 963.000 702.000 L 963.000 701.000 L 964.000 700.000 L 964.000 699.000 L 965.000 698.000 L 966.000 697.000 L 966.000 696.000 L 967.000 695.000 L 968.000 694.000 L 968.000 693.000 L 969.000 692.000 L 969.000 691.000 L 970.000 690.000 L 971.000 689.000 L 971.000 688.000 L 972.000 687.000 L 972.000 686.000 L 973.000 685.000 L 974.000 684.000 L 974.000 683.000 L 975.000 682.000 L 975.000 681.000 L 976.000 680.000 L 977.000 679.000 L 977.000 678.000 L 978.000 677.000 L 978.000 676.000 L 979.000 675.000 L 979.000 674.000 L 980.000 673.000 L 980.000 672.000 L 981.000 671.000 L 981.000 670.000 L 982.000 669.000 L 982.000 668.000 L 983.000 667.000 L 983.000 666.000 L 984.000 665.000 L 984.000 664.000 L 985.000 663.000 L 985.000 662.000 L 986.000 661.000 L 986.000 660.000 L 987.000 659.000 L 987.000 658.000 L 988.000 657.000 L 988.000 656.000 L 989.000 655.000 L 989.000 654.000 L 990.000 653.000 L 990.000 652.000 L 991.000 651.000 L 991.000 650.000 L 992.000 649.000 L 992.000 648.000 L 992.000 647.000 L 993.000 646.000 L 993.000 645.000 L 994.000 644.000 L 994.000 643.000 L 995.000 642.000 L 995.000 641.000 L 995.000 640.000 L 996.000 639.000 L 996.000 638.000 L 997.000 637.000 L 997.000 636.000 L 997.000 635.000 L 998.000 634.000 L 998.000 633.000 L 999.000 632.000 L 999.000 631.000 L 999.000 630.000 L 1000.000 629.000 L 1000.000 628.000 L 1000.000 627.000 L 1001.000 626.000 L 1001.000 625.000 L 1002.000 624.000 L 1002.000 623.000 L 1002.000 622.000 L 1003.000 621.000 L 1003.000 620.000 L 1003.000 619.000 L 1004.000 618.000 L 1004.000 617.000 L 1004.000 616.000 L 1005.000 615.000 L 1005.000 614.000 L 1005.000 613.000 L 1006.000 612.000 L 1006.000 611.000 L 1006.000 610.000 L 1007.000 609.000 L 1007.000 608.000 L 1007.000 607.000 L 1008.000 606.000 L 1008.000 605.000 L 1008.000 604.000 L 1009.000 603.000 L 1009.000 602.000 L 1009.000 601.000 L 1010.000 600.000 L 1010.000 599.000 L 1010.000 598.000 L 1010.000 597.000 L 1011.000 596.000 L 1011.000 595.000 L 1011.000 594.000 L 1012.000 593.000 L 1012.000 592.000 L 1012.000 591.000 L 1012.000 590.000 L 1013.000 589.000 L 1013.000 588.000 L 1013.000 587.000 L 1013.000 586.000 L 1014.000 585.000 L 1014.000 584.000 L 1014.000 583.000 L 1014.000 582.000 L 1014.000 581.000 L 1015.000 580.000 L 1015.000 579.000 L 1015.000 578.000 L 1015.000 577.000 L 1016.000 576.000 L 1016.000 575.000 L 1016.000 574.000 L 1016.000 573.000 L 1016.000 572.000 L 1017.000 571.000 L 1017.000 570.000 L 1017.000 569.000 L 1017.000 568.000 L 1017.000 567.000 L 1018.000 566.000 L 1018.000 565.000 L 1018.000 564.000 L 1018.000 563.000 L 1018.000 562.000 L 1018.000 561.000 L 1018.000 560.000 L 1019.000 559.000 L 1019.000 558.000 L 1019.000 557.000 L 1019.000 556.000 L 1019.000 555.000 L 1019.000 554.000 L 1020.000 553.000 L 1020.000 552.000 L 1020.000 551.000 L 1020.000 550.000 L 1020.000 549.000 L 1020.000 548.000 L 1020.000 547.000 L 1020.000 546.000 L 1021.000 545.000 L 1021.000 544.000 L 1021.000 543.000 L 1021.000 542.000 L 1021.000 541.000 L 1021.000 540.000 L 1021.000 539.000 L 1021.000 538.000 L 1021.000 537.000 L 1022.000 536.000 L 1022.000 535.000 L 1022.000 534.000 L 1022.000 533.000 L 1022.000 532.000 L 1022.000 531.000 L 1022.000 530.000 L 1022.000 529.000 L 1022.000 528.000 L 1023.000 527.000 L 1023.000 526.000 L 1023.000 525.000 L 1023.000 524.000 L 1023.000 523.000 L 1023.000 522.000 L 1023.000 521.000 L 1023.000 520.000 L 1023.000 519.000 L 1023.000 518.000 L 1023.000 517.000 L 1023.000 516.000 L 1023.000 515.000 L 1023.000 514.000 L 1023.000 513.000 L 1023.000 512.000 L 1023.000 511.000 L 1023.000 510.000 L 1023.000 509.000 L 1023.000 508.000 L 1023.000 507.000 L 1023.000 506.000 L 1023.000 505.000 L 1023.000 504.000 L 1023.000 503.000 L 1023.000 502.000 L 1023.000 501.000 L 1023.000 500.000 L 1023.000 499.000 L 1023.000 498.000 L 1023.000 497.000 L 1023.000 496.000 L 1023.000 495.000 L 1023.000 494.000 L 1023.000 493.000 L 1023.000 492.000 L 1023.000 491.000 L 1023.000 490.000 L 1023.000 489.000 L 1023.000 488.000 L 1023.000 487.000 L 1023.000 486.000 L 1023.000 485.000 L 1023.000 484.000 L 1023.000 483.000 L 1023.000 482.000 L 1023.000 481.000 L 1023.000 480.000 L 1023.000 479.000 L 1022.000 478.000 L 1022.000 477.000 L 1022.000 476.000 L 1022.000 475.000 L 1022.000 474.000 L 1022.000 473.000 L 1022.000 472.000 L 1022.000 471.000 L 1022.000 470.000 L 1021.000 469.000 L 1021.000 468.000 L 1021.000 467.000 L 1021.000 466.000 L 1021.000 465.000 L 1021.000 464.000 L 1021.000 463.000 L 1021.000 462.000 L 1021.000 461.000 L 1020.000 460.000 L 1020.000 459.000 L 1020.000 458.000 L 1020.000 457.000 L 1020.000 456.000 L 1020.000 455.000 L 1020.000 454.000 L 1020.000 453.000 L 1019.000 452.000 L 1019.000 451.000 L 1019.000 450.000 L 1019.000 449.000 L 1019.000 448.000 L 1019.000 447.000 L 1018.000 446.000 L 1018.000 445.000 L 1018.000 444.000 L 1018.000 443.000 L 1018.000 442.000 L 1017.000 441.000 L 1017.000 440.000 L 1017.000 439.000 L 1017.000 438.000 L 1017.000 437.000 L 1017.000 436.000 L 1016.000 435.000 L 1016.000 434.000 L 1016.000 433.000 L 1016.000 432.000 L 1015.000 431.000 L 1015.000 430.000 L 1015.000 429.000 L 1015.000 428.000 L 1015.000 427.000 L 1014.000 426.000 L 1014.000 425.000 L 1014.000 424.000 L 1014.000 423.000 L 1014.000 422.000 L 1013.000 421.000 L 1013.000 420.000 L 1013.000 419.000 L 1012.000 418.000 L 1012.000 417.000 L 1012.000 416.000 L 1012.000 415.000 L 1011.000 414.000 L 1011.000 413.000 L 1011.000 412.000 L 1011.000 411.000 L 1010.000 410.000 L 1010.000 409.000 L 1010.000 408.000 L 1009.000 407.000 L 1009.000 406.000 L 1009.000 405.000 L 1008.000 404.000 L 1008.000 403.000 L 1008.000 402.000 L 1008.000 401.000 L 1007.000 400.000 L 1007.000 399.000 L 1007.000 398.000 L 1006.000 397.000 L 1006.000 396.000 L 1006.000 395.000 L 1005.000 394.000 L 1005.000 393.000 L 1004.000 392.000 L 1004.000 391.000 L 1004.000 390.000 L 1003.000 389.000 L 1003.000 388.000 L 1003.000 387.000 L 1002.000 386.000 L 1002.000 385.000 L 1002.000 384.000 L 1001.000 383.000 L 1001.000 382.000 L 1000.000 381.000 L 1000.000 380.000 L 1000.000 379.000 L 999.000 378.000 L 999.000 377.000 L 998.000 376.000 L 998.000 375.000 L 998.000 374.000 L 997.000 373.000 L 997.000 372.000 L 996.000 371.000 L 996.000 370.000 L 995.000 369.000 L 995.000 368.000 L 995.000 367.000 L 994.000 366.000 L 994.000 365.000 L 993.000 364.000 L 993.000 363.000 L 993.000 362.000 L 992.000 361.000 L 992.000 360.000 L 991.000 359.000 L 991.000 358.000 L 990.000 357.000 L 990.000 356.000 L 989.000 355.000 L 989.000 354.000 L 988.000 353.000 L 988.000 352.000 L 987.000 351.000 L 987.000 350.000 L 986.000 349.000 L 986.000 348.000 L 985.000 347.000 L 984.000 346.000 L 984.000 345.000 L 983.000 344.000 L 983.000 343.000 L 982.000 342.000 L 982.000 341.000 L 981.000 340.000 L 981.000 339.000 L 980.000 338.000 L 980.000 337.000 L 979.000 336.000 L 978.000 335.000 L 978.000 334.000 L 977.000 333.000 L 977.000 332.000 L 976.000 331.000 L 976.000 330.000 L 975.000 329.000 L 974.000 328.000 L 974.000 327.000 L 973.000 326.000 L 972.000 325.000 L 972.000 324.000 L 971.000 323.000 L 971.000 322.000 L 970.000 321.000 L 969.000 320.000 L 969.000 319.000 L 968.000 318.000 L 967.000 317.000 L 967.000 316.000 L 966.000 315.000 L 965.000 314.000 L 965.000 313.000 L 964.000 312.000 L 963.000 311.000 L 963.000 310.000 L 962.000 309.000 L 961.000 308.000 L 960.000 307.000 L 960.000 306.000 L 959.000 305.000 L 958.000 304.000 L 958.000 303.000 L 957.000 302.000 L 956.000 301.000 L 955.000 300.000 L 954.000 299.000 L 954.000 298.000 L 953.000 297.000 L 952.000 296.000 L 951.000 295.000 L 951.000 294.000 L 950.000 293.000 L 949.000 292.000 L 948.000 291.000 L 948.000 290.000 L 947.000 289.000 L 946.000 288.000 L 945.000 287.000 L 944.000 286.000 L 944.000 285.000 L 943.000 284.000 L 942.000 283.000 L 941.000 282.000 L 940.000 281.000 L 939.000 280.000 L 938.000 279.000 L 937.000 278.000 L 937.000 277.000 L 936.000 276.000 L 935.000 275.000 L 934.000 274.000 L 933.000 273.000 L 932.000 272.000 L 931.000 271.000 L 931.000 270.000 L 931.000 269.000 L 931.000 268.000 L 932.000 267.000 L 932.000 266.000 L 932.000 265.000 L 932.000 264.000 L 932.000 263.000 L 932.000 262.000 L 932.000 261.000 L 932.000 260.000 L 932.000 259.000 L 932.000 258.000 L 932.000 257.000 L 932.000 256.000 L 933.000 255.000 L 933.000 254.000 L 933.000 253.000 L 933.000 252.000 L 933.000 251.000 L 933.000 250.000 L 933.000 249.000 L 933.000 248.000 L 933.000 247.000 L 933.000 246.000 L 933.000 245.000 L 933.000 244.000 L 933.000 243.000 L 933.000 242.000 L 933.000 241.000 L 933.000 240.000 L 934.000 239.000 L 934.000 238.000 L 934.000 237.000 L 934.000 236.000 L 934.000 235.000 L 934.000 234.000 L 934.000 233.000 L 934.000 232.000 L 934.000 231.000 L 934.000 230.000 L 934.000 229.000 L 934.000 228.000 L 934.000 227.000 L 934.000 226.000 L 934.000 225.000 L 934.000 224.000 L 934.000 223.000 L 934.000 222.000 L 934.000 221.000 L 934.000 220.000 L 934.000 219.000 L 934.000 218.000 L 934.000 217.000 L 934.000 216.000 L 934.000 215.000 L 934.000 214.000 L 934.000 213.000 L 934.000 212.000 L 934.000 211.000 L 934.000 210.000 L 934.000 209.000 L 934.000 208.000 L 934.000 207.000 L 934.000 206.000 L 934.000 205.000 L 934.000 204.000 L 934.000 203.000 L 934.000 202.000 L 934.000 201.000 L 934.000 200.000 L 934.000 199.000 L 933.000 198.000 L 933.000 197.000 L 933.000 196.000 L 933.000 195.000 L 933.000 194.000 L 933.000 193.000 L 933.000 192.000 L 933.000 191.000 L 933.000 190.000 L 933.000 189.000 L 933.000 188.000 L 933.000 187.000 L 933.000 186.000 L 933.000 185.000 L 933.000 184.000 L 932.000 183.000 L 932.000 182.000 L 932.000 181.000 L 932.000 180.000 L 932.000 179.000 L 932.000 178.000 L 932.000 177.000 L 932.000 176.000 L 932.000 175.000 L 932.000 174.000 L 931.000 173.000 L 931.000 172.000 L 931.000 171.000 L 931.000 170.000 L 931.000 169.000 L 931.000 168.000 L 931.000 167.000 L 931.000 166.000 L 931.000 165.000 L 930.000 164.000 L 930.000 163.000 L 930.000 162.000 L 930.000 161.000 L 930.000 160.000 L 930.000 159.000 L 930.000 158.000 L 929.000 157.000 L 929.000 156.000 L 929.000 155.000 L 929.000 154.000 L 929.000 153.000 L 929.000 152.000 L 928.000 151.000 L 928.000 150.000 L 928.000 149.000 L 928.000 148.000 L 928.000 147.000 L 928.000 146.000 L 927.000 145.000 L 927.000 144.000 L 927.000 143.000 L 927.000 142.000 L 927.000 141.000 L 927.000 140.000 L 926.000 139.000 L 926.000 138.000 L 926.000 137.000 L 926.000 136.000 L 926.000 135.000 L 925.000 134.000 L 925.000 133.000 L 925.000 132.000 L 925.000 131.000 L 924.000 130.000 L 924.000 129.000 L 924.000 128.000 L 924.000 127.000 L 923.000 126.000 L 923.000 125.000 L 923.000 124.000 L 923.000 123.000 L 922.000 122.000 L 922.000 121.000 L 922.000 120.000 L 922.000 119.000 L 921.000 118.000 L 921.000 117.000 L 921.000 116.000 L 921.000 115.000 L 920.000 114.000 L 920.000 113.000 L 920.000 112.000 L 920.000 111.000 L 919.000 110.000 L 919.000 109.000 L 919.000 108.000 L 918.000 107.000 L 918.000 106.000 L 918.000 105.000 L 918.000 104.000 L 917.000 103.000 L 917.000 102.000 L 917.000 101.000 L 916.000 100.000 L 916.000 99.000 L 916.000 98.000 L 915.000 97.000 L 915.000 96.000 L 915.000 95.000 L 914.000 94.000 L 914.000 93.000 L 914.000 92.000 L 913.000 91.000 L 913.000 90.000 L 913.000 89.000 L 912.000 88.000 L 912.000 87.000 L 911.000 86.000 L 911.000 85.000 L 911.000 84.000 L 910.000 83.000 L 910.000 82.000 L 909.000 81.000 L 909.000 80.000 L 908.000 79.000 L 908.000 78.000 L 908.000 77.000 L 907.000 77.000 L 906.000 77.000 L 905.000 78.000 L 904.000 78.000 L 903.000 79.000 L 902.000 80.000 L 901.000 80.000 L 900.000 81.000 L 899.000 82.000 L 898.000 82.000 L 897.000 83.000 L 896.000 84.000 L 895.000 84.000 L 894.000 85.000 L 893.000 86.000 L 892.000 86.000 L 891.000 87.000 L 890.000 88.000 L 889.000 88.000 L 888.000 89.000 L 887.000 90.000 L 886.000 90.000 L 885.000 91.000 L 884.000 91.000 L 883.000 92.000 L 882.000 93.000 L 881.000 93.000 L 880.000 94.000 L 879.000 94.000 L 878.000 95.000 L 877.000 96.000 L 876.000 96.000 L 875.000 97.000 L 874.000 97.000 L 873.000 98.000 L 872.000 99.000 L 871.000 99.000 L 870.000 100.000 L 869.000 100.000 L 868.000 101.000 L 867.000 101.000 L 866.000 102.000 L 865.000 102.000 L 864.000 103.000 L 863.000 104.000 L 862.000 104.000 L 861.000 105.000 L 860.000 105.000 L 859.000 106.000 L 858.000 106.000 L 857.000 107.000 L 856.000 107.000 L 855.000 108.000 L 854.000 108.000 L 853.000 109.000 L 852.000 109.000 L 851.000 110.000 L 850.000 110.000 L 849.000 111.000 L 848.000 111.000 L 847.000 112.000 L 846.000 112.000 L 845.000 113.000 L 844.000 113.000 L 843.000 114.000 L 842.000 114.000 L 841.000 115.000 L 840.000 115.000 L 839.000 116.000 L 838.000 116.000 L 837.000 117.000 L 836.000 117.000 L 835.000 118.000 L 834.000 118.000 L 833.000 118.000 L 832.000 119.000 L 831.000 119.000 L 830.000 120.000 L 829.000 120.000 L 828.000 121.000 L 827.000 121.000 L 826.000 122.000 L 825.000 122.000 L 824.000 123.000 L 823.000 123.000 L 822.000 123.000 L 821.000 124.000 L 820.000 124.000 L 819.000 125.000 L 818.000 125.000 L 817.000 126.000 L 816.000 126.000 L 815.000 126.000 L 814.000 127.000 L 813.000 127.000 L 812.000 128.000 L 811.000 128.000 L 810.000 128.000 L 809.000 129.000 L 808.000 129.000 L 807.000 130.000 L 806.000 130.000 L 805.000 130.000 L 804.000 131.000 L 803.000 131.000 L 802.000 132.000 L 801.000 132.000 L 800.000 132.000 L 799.000 133.000 L 798.000 133.000 L 797.000 134.000 L 796.000 134.000 L 795.000 134.000 L 794.000 135.000 L 793.000 135.000 L 792.000 135.000 L 791.000 136.000 L 790.000 136.000 L 789.000 137.000 L 788.000 137.000 L 787.000 137.000 L 786.000 138.000 L 785.000 138.000 L 784.000 138.000 L 783.000 139.000 L 782.000 139.000 L 781.000 139.000 L 780.000 140.000 L 779.000 140.000 L 778.000 140.000 L 777.000 141.000 L 776.000 141.000 L 775.000 141.000 L 774.000 142.000 L 773.000 142.000 L 772.000 142.000 L 771.000 143.000 L 770.000 143.000 L 769.000 143.000 L 768.000 144.000 L 767.000 144.000 L 766.000 144.000 L 765.000 145.000 L 764.000 145.000 L 763.000 145.000 L 762.000 146.000 L 761.000 146.000 L 760.000 146.000 L 759.000 147.000 L 758.000 147.000 L 757.000 147.000 L 756.000 148.000 L 755.000 148.000 L 754.000 148.000 L 753.000 148.000 L 752.000 149.000 L 751.000 149.000 L 750.000 149.000 L 749.000 150.000 L 748.000 150.000 L 747.000 150.000 L 746.000 150.000 L 745.000 151.000 L 744.000 151.000 L 743.000 151.000 L 742.000 152.000 L 741.000 152.000 L 740.000 152.000 L 739.000 152.000 L 738.000 153.000 L 737.000 153.000 L 736.000 153.000 L 735.000 153.000 L 734.000 154.000 L 733.000 154.000 L 732.000 154.000 L 731.000 155.000 L 730.000 155.000 L 729.000 155.000 L 728.000 155.000 L 727.000 156.000 L 726.000 156.000 L 725.000 156.000 L 724.000 156.000 L 723.000 157.000 L 722.000 157.000 L 721.000 157.000 L 720.000 157.000 L 719.000 158.000 L 718.000 158.000 L 717.000 158.000 L 716.000 158.000 L 715.000 159.000 L 714.000 159.000 L 713.000 159.000 L 712.000 159.000 L 711.000 160.000 L 710.000 160.000 L 709.000 160.000 L 708.000 160.000 L 707.000 161.000 L 706.000 161.000 L 705.000 161.000 L 704.000 161.000 L 703.000 161.000 L 702.000 162.000 L 701.000 162.000 L 700.000 162.000 L 699.000 162.000 L 698.000 163.000 L 697.000 163.000 L 696.000 163.000 L 695.000 163.000 L 694.000 163.000 L 693.000 164.000 L 692.000 164.000 L 691.000 164.000 L 690.000 164.000 L 689.000 164.000 L 688.000 165.000 L 687.000 165.000 L 686.000 165.000 L 685.000 165.000 L 684.000 165.000 L 683.000 166.000 L 682.000 166.000 L 681.000 166.000 L 680.000 166.000 L 679.000 166.000 L 678.000 167.000 L 677.000 167.000 L 676.000 167.000 L 675.000 167.000 L 674.000 167.000 L 673.000 168.000 L 672.000 168.000 L 671.000 168.000 L 670.000 168.000 L 669.000 168.000 L 668.000 169.000 L 667.000 169.000 L 666.000 169.000 L 665.000 169.000 L 664.000 169.000 L 663.000 169.000 L 662.000 170.000 L 661.000 170.000 L 660.000 170.000 L 659.000 170.000 L 658.000 170.000 L 657.000 170.000 L 656.000 171.000 L 655.000 171.000 L 654.000 171.000 L 653.000 171.000 L 652.000 171.000 L 651.000 171.000 L 650.000 172.000 L 649.000 172.000 L 648.000 172.000 L 647.000 172.000 L 646.000 172.000 L 645.000 172.000 L 644.000 172.000 L 643.000 173.000 L 642.000 173.000 L 641.000 173.000 L 640.000 173.000 L 639.000 173.000 L 638.000 173.000 L 637.000 173.000 L 636.000 174.000 L 635.000 174.000 L 634.000 174.000 L 633.000 174.000 L 632.000 174.000 L 631.000 174.000 L 630.000 174.000 L 629.000 174.000 L 628.000 175.000 L 627.000 175.000 L 626.000 175.000 L 625.000 175.000 L 624.000 175.000 L 623.000 175.000 L 622.000 175.000 L 621.000 176.000 L 620.000 176.000 L 619.000 176.000 L 618.000 176.000 L 617.000 176.000 L 616.000 176.000 L 615.000 176.000 L 614.000 176.000 L 613.000 176.000 L 612.000 177.000 L 611.000 177.000 L 610.000 177.000 L 609.000 177.000 L 608.000 177.000 L 607.000 177.000 L 606.000 177.000 L 605.000 177.000 L 604.000 177.000 L 603.000 177.000 L 602.000 178.000 L 601.000 178.000 L 600.000 178.000 L 599.000 178.000 L 598.000 178.000 L 597.000 178.000 L 596.000 178.000 L 595.000 178.000 L 594.000 178.000 L 593.000 178.000 L 592.000 179.000 L 591.000 179.000 L 590.000 179.000 L 589.000 179.000 L 588.000 179.000 L 587.000 179.000 L 586.000 179.000 L 585.000 179.000 L 584.000 179.000 L 583.000 179.000 L 582.000 179.000 L 581.000 179.000 L 580.000 180.000 L 579.000 180.000 L 578.000 180.000 L 577.000 180.000 L 576.000 180.000 L 575.000 180.000 L 574.000 180.000 L 573.000 180.000 L 572.000 180.000 L 571.000 180.000 L 570.000 180.000 L 569.000 180.000 L 568.000 180.000 L 567.000 180.000 L 566.000 180.000 L 565.000 180.000 L 564.000 181.000 L 563.000 181.000 L 562.000 181.000 L 561.000 181.000 L 560.000 181.000 L 559.000 181.000 L 558.000 181.000 L 557.000 181.000 L 556.000 181.000 L 555.000 181.000 L 554.000 181.000 L 553.000 181.000 L 552.000 181.000 L 551.000 181.000 L 550.000 181.000 L 549.000 181.000 L 548.000 181.000 L 547.000 181.000 L 546.000 181.000 L 545.000 181.000 L 544.000 181.000 L 543.000 181.000 L 542.000 182.000 L 541.000 182.000 L 540.000 182.000 L 539.000 182.000 L 538.000 182.000 L 537.000 182.000 L 536.000 182.000 L 535.000 182.000 L 534.000 182.000 L 533.000 182.000 L 532.000 182.000 L 531.000 182.000 L 530.000 182.000 L 529.000 182.000 L 528.000 182.000 L 527.000 182.000 L 526.000 182.000 L 525.000 182.000 L 524.000 182.000 L 523.000 182.000 L 522.000 182.000 L 521.000 182.000 L 520.000 182.000 L 519.000 182.000 L 518.000 182.000 L 517.000 182.000 L 516.000 182.000 L 515.000 182.000 L 514.000 182.000 L 513.000 182.000 L 512.000 182.000 L 511.000 182.000 L 510.000 182.000 L 509.000 182.000 L 508.000 182.000 L 507.000 182.000 L 506.000 182.000 L 505.000 182.000 L 504.000 182.000 L 503.000 182.000 L 502.000 182.000 L 501.000 182.000 L 500.000 182.000 L 499.000 182.000 L 498.000 182.000 L 497.000 182.000 L 496.000 182.000 L 495.000 182.000 L 494.000 182.000 L 493.000 182.000 L 492.000 182.000 L 491.000 182.000 L 490.000 182.000 L 489.000 182.000 L 488.000 182.000 L 487.000 182.000 L 486.000 182.000 L 485.000 182.000 L 484.000 182.000 L 483.000 182.000 L 482.000 182.000 L 481.000 182.000 L 480.000 182.000 L 479.000 181.000 L 478.000 181.000 L 477.000 181.000 L 476.000 181.000 L 475.000 181.000 L 474.000 181.000 L 473.000 181.000 L 472.000 181.000 L 471.000 181.000 L 470.000 181.000 L 469.000 181.000 L 468.000 181.000 L 467.000 181.000 L 466.000 181.000 L 465.000 181.000 L 464.000 181.000 L 463.000 181.000 L 462.000 181.000 L 461.000 181.000 L 460.000 181.000 L 459.000 181.000 L 458.000 181.000 L 457.000 180.000 L 456.000 180.000 L 455.000 180.000 L 454.000 180.000 L 453.000 180.000 L 452.000 180.000 L 451.000 180.000 L 450.000 180.000 L 449.000 180.000 L 448.000 180.000 L 447.000 180.000 L 446.000 180.000 L 445.000 180.000 L 444.000 180.000 L 443.000 179.000 L 442.000 179.000 L 441.000 179.000 L 440.000 179.000 L 439.000 179.000 L 438.000 179.000 L 437.000 179.000 L 436.000 179.000 L 435.000 179.000 L 434.000 179.000 L 433.000 179.000 L 432.000 179.000 L 431.000 179.000 L 430.000 178.000 L 429.000 178.000 L 428.000 178.000 L 427.000 178.000 L 426.000 178.000 L 425.000 178.000 L 424.000 178.000 L 423.000 178.000 L 422.000 178.000 L 421.000 178.000 L 420.000 177.000 L 419.000 177.000 L 418.000 177.000 L 417.000 177.000 L 416.000 177.000 L 415.000 177.000 L 414.000 177.000 L 413.000 177.000 L 412.000 177.000 L 411.000 177.000 L 410.000 176.000 L 409.000 176.000 L 408.000 176.000 L 407.000 176.000 L 406.000 176.000 L 405.000 176.000 L 404.000 176.000 L 403.000 176.000 L 402.000 175.000 L 401.000 175.000 L 400.000 175.000 L 399.000 175.000 L 398.000 175.000 L 397.000 175.000 L 396.000 175.000 L 395.000 175.000 L 394.000 174.000 L 393.000 174.000 L 392.000 174.000 L 391.000 174.000 L 390.000 174.000 L 389.000 174.000 L 388.000 174.000 L 387.000 173.000 L 386.000 173.000 L 385.000 173.000 L 384.000 173.000 L 383.000 173.000 L 382.000 173.000 L 381.000 173.000 L 380.000 172.000 L 379.000 172.000 L 378.000 172.000 L 377.000 172.000 L 376.000 172.000 L 375.000 172.000 L 374.000 172.000 L 373.000 171.000 L 372.000 171.000 L 371.000 171.000 L 370.000 171.000 L 369.000 171.000 L 368.000 171.000 L 367.000 170.000 L 366.000 170.000 L 365.000 170.000 L 364.000 170.000 L 363.000 170.000 L 362.000 170.000 L 361.000 169.000 L 360.000 169.000 L 359.000 169.000 L 358.000 169.000 L 357.000 169.000 L 356.000 169.000 L 355.000 168.000 L 354.000 168.000 L 353.000 168.000 L 352.000 168.000 L 351.000 168.000 L 350.000 167.000 L 349.000 167.000 L 348.000 167.000 L 347.000 167.000 L 346.000 167.000 L 345.000 166.000 L 344.000 166.000 L 343.000 166.000 L 342.000 166.000 L 341.000 166.000 L 340.000 166.000 L 339.000 165.000 L 338.000 165.000 L 337.000 165.000 L 336.000 165.000 L 335.000 165.000 L 334.000 164.000 L 333.000 164.000 L 332.000 164.000 L 331.000 164.000 L 330.000 164.000 L 329.000 163.000 L 328.000 163.000 L 327.000 163.000 L 326.000 163.000 L 325.000 162.000 L 324.000 162.000 L 323.000 162.000 L 322.000 162.000 L 321.000 162.000 L 320.000 161.000 L 319.000 161.000 L 318.000 161.000 L 317.000 161.000 L 316.000 160.000 L 315.000 160.000 L 314.000 160.000 L 313.000 160.000 L 312.000 160.000 L 311.000 159.000 L 310.000 159.000 L 309.000 159.000 L 308.000 159.000 L 307.000 158.000 L 306.000 158.000 L 305.000 158.000 L 304.000 158.000 L 303.000 157.000 L 302.000 157.000 L 301.000 157.000 L 300.000 157.000 L 299.000 156.000 L 298.000 156.000 L 297.000 156.000 L 296.000 156.000 L 295.000 155.000 L 294.000 155.000 L 293.000 155.000 L 292.000 154.000 L 291.000 154.000 L 290.000 154.000 L 289.000 154.000 L 288.000 153.000 L 287.000 153.000 L 286.000 153.000 L 285.000 153.000 L 284.000 152.000 L 283.000 152.000 L 282.000 152.000 L 281.000 151.000 L 280.000 151.000 L 279.000 151.000 L 278.000 151.000 L 277.000 150.000 L 276.000 150.000 L 275.000 150.000 L 274.000 149.000 L 273.000 149.000 L 272.000 149.000 L 271.000 149.000 L 270.000 148.000 L 269.000 148.000 L 268.000 148.000 L 267.000 147.000 L 266.000 147.000 L 265.000 147.000 L 264.000 147.000 L 263.000 146.000 L 262.000 146.000 L 261.000 146.000 L 260.000 145.000 L 259.000 145.000 L 258.000 145.000 L 257.000 144.000 L 256.000 144.000 L 255.000 144.000 L 254.000 143.000 L 253.000 143.000 L 252.000 143.000 L 251.000 142.000 L 250.000 142.000 L 249.000 142.000 L 248.000 141.000 L 247.000 141.000 L 246.000 141.000 L 245.000 140.000 L 244.000 140.000 L 243.000 140.000 L 242.000 139.000 L 241.000 139.000 L 240.000 139.000 L 239.000 138.000 L 238.000 138.000 L 237.000 138.000 L 236.000 137.000 L 235.000 137.000 L 234.000 136.000 L 233.000 136.000 L 232.000 136.000 L 231.000 135.000 L 230.000 135.000 L 229.000 135.000 L 228.000 134.000 L 227.000 134.000 L 226.000 134.000 L 225.000 133.000 L 224.000 133.000 L 223.000 132.000 L 222.000 132.000 L 221.000 132.000 L 220.000 131.000 L 219.000 131.000 L 218.000 130.000 L 217.000 130.000 L 216.000 130.000 L 215.000 129.000 L 214.000 129.000 L 213.000 129.000 L 212.000 128.000 L 211.000 128.000 L 210.000 127.000 L 209.000 127.000 L 208.000 126.000 L 207.000 126.000 L 206.000 126.000 L 205.000 125.000 L 204.000 125.000 L 203.000 124.000 L 202.000 124.000 L 201.000 123.000 L 200.000 123.000 L 199.000 123.000 L 198.000 122.000 L 197.000 122.000 L 196.000 121.000 L 195.000 121.000 L 194.000 120.000 L 193.000 120.000 L 192.000 119.000 L 191.000 119.000 L 190.000 119.000 L 189.000 118.000 L 188.000 118.000 L 187.000 117.000 L 186.000 117.000 L 185.000 116.000 L 184.000 116.000 L 183.000 115.000 L 182.000 115.000 L 181.000 114.000 L 180.000 114.000 L 179.000 113.000 L 178.000 113.000 L 177.000 112.000 L 176.000 112.000 L 175.000 111.000 L 174.000 111.000 L 173.000 110.000 L 172.000 110.000 L 171.000 109.000 L 170.000 109.000 L 169.000 108.000 L 168.000 108.000 L 167.000 107.000 L 166.000 107.000 L 165.000 106.000 L 164.000 106.000 L 163.000 105.000 L 162.000 105.000 L 161.000 104.000 L 160.000 104.000 L 159.000 103.000 L 158.000 102.000 L 157.000 102.000 L 156.000 101.000 L 155.000 101.000 L 154.000 100.000 L 153.000 100.000 L 152.000 99.000 L 151.000 99.000 L 150.000 98.000 L 149.000 97.000 L 148.000 97.000 L 147.000 96.000 L 146.000 96.000 L 145.000 95.000 L 144.000 94.000 L 143.000 94.000 L 142.000 93.000 L 141.000 93.000 L 140.000 92.000 L 139.000 91.000 L 138.000 91.000 L 137.000 90.000 L 136.000 90.000 L 135.000 89.000 L 134.000 88.000 L 133.000 88.000 L 132.000 87.000 L 131.000 86.000 L 130.000 86.000 L 129.000 85.000 L 128.000 84.000 L 127.000 84.000 L 126.000 83.000 L 125.000 82.000 L 124.000 82.000 L 123.000 81.000 L 122.000 81.000 L 121.000 80.000 L 120.000 79.000 L 119.000 78.000 L 118.000 78.000 L 117.000 77.000 Z" fill="#1C6839" stroke="#333" stroke-width="24" stroke-linejoin="round"/>
    <circle cx="276.651" cy="485.734" r="175.363" fill="#ffffff"/>
    <circle cx="746.509" cy="485.752" r="175.364" fill="#ffffff"/>
    <circle cx="276.887" cy="485.774" r="76.008" fill="#000000"/>
    <circle cx="746.257" cy="485.805" r="76.016" fill="#000000"/>
    <path d="M 502.000 623.000 L 501.000 624.000 L 500.000 624.000 L 499.000 624.000 L 498.000 624.000 L 497.000 624.000 L 496.000 624.000 L 495.000 624.000 L 494.000 624.000 L 493.000 624.000 L 492.000 624.000 L 491.000 624.000 L 490.000 624.000 L 489.000 624.000 L 488.000 624.000 L 487.000 625.000 L 486.000 625.000 L 485.000 625.000 L 484.000 625.000 L 483.000 625.000 L 482.000 625.000 L 481.000 625.000 L 480.000 625.000 L 479.000 626.000 L 478.000 626.000 L 477.000 626.000 L 476.000 626.000 L 475.000 626.000 L 474.000 626.000 L 473.000 626.000 L 472.000 627.000 L 471.000 627.000 L 470.000 627.000 L 469.000 627.000 L 468.000 627.000 L 467.000 628.000 L 466.000 628.000 L 465.000 628.000 L 464.000 628.000 L 463.000 628.000 L 462.000 629.000 L 461.000 629.000 L 460.000 629.000 L 459.000 630.000 L 458.000 630.000 L 457.000 630.000 L 456.000 630.000 L 455.000 630.000 L 454.000 631.000 L 453.000 631.000 L 452.000 631.000 L 451.000 632.000 L 450.000 632.000 L 449.000 632.000 L 448.000 632.000 L 447.000 633.000 L 446.000 633.000 L 445.000 633.000 L 444.000 634.000 L 443.000 634.000 L 442.000 634.000 L 441.000 635.000 L 440.000 635.000 L 439.000 635.000 L 438.000 636.000 L 437.000 636.000 L 436.000 636.000 L 435.000 637.000 L 434.000 637.000 L 433.000 638.000 L 432.000 638.000 L 432.000 639.000 L 433.000 640.000 L 433.000 641.000 L 433.000 642.000 L 434.000 643.000 L 434.000 644.000 L 434.000 645.000 L 435.000 646.000 L 435.000 647.000 L 436.000 648.000 L 436.000 649.000 L 436.000 650.000 L 437.000 651.000 L 437.000 652.000 L 438.000 653.000 L 438.000 654.000 L 438.000 655.000 L 439.000 656.000 L 439.000 657.000 L 440.000 658.000 L 440.000 659.000 L 441.000 660.000 L 441.000 661.000 L 442.000 662.000 L 442.000 663.000 L 442.000 664.000 L 443.000 665.000 L 443.000 666.000 L 444.000 667.000 L 444.000 668.000 L 445.000 669.000 L 445.000 670.000 L 446.000 671.000 L 446.000 672.000 L 447.000 673.000 L 447.000 674.000 L 448.000 675.000 L 448.000 676.000 L 449.000 677.000 L 449.000 678.000 L 450.000 679.000 L 450.000 680.000 L 451.000 681.000 L 451.000 682.000 L 452.000 683.000 L 452.000 684.000 L 453.000 685.000 L 453.000 686.000 L 454.000 687.000 L 454.000 688.000 L 455.000 689.000 L 456.000 690.000 L 456.000 691.000 L 457.000 692.000 L 457.000 693.000 L 458.000 694.000 L 458.000 695.000 L 459.000 696.000 L 459.000 697.000 L 460.000 698.000 L 460.000 699.000 L 461.000 700.000 L 462.000 701.000 L 462.000 702.000 L 463.000 703.000 L 463.000 704.000 L 464.000 705.000 L 465.000 706.000 L 465.000 707.000 L 466.000 708.000 L 466.000 709.000 L 467.000 710.000 L 468.000 711.000 L 468.000 712.000 L 469.000 713.000 L 469.000 714.000 L 470.000 715.000 L 471.000 716.000 L 471.000 717.000 L 472.000 718.000 L 473.000 719.000 L 473.000 720.000 L 474.000 721.000 L 474.000 722.000 L 475.000 723.000 L 476.000 724.000 L 476.000 725.000 L 477.000 726.000 L 478.000 727.000 L 478.000 728.000 L 479.000 729.000 L 480.000 730.000 L 480.000 731.000 L 481.000 732.000 L 482.000 733.000 L 482.000 734.000 L 483.000 735.000 L 484.000 736.000 L 484.000 737.000 L 485.000 738.000 L 486.000 739.000 L 486.000 740.000 L 487.000 741.000 L 488.000 742.000 L 488.000 743.000 L 489.000 744.000 L 490.000 745.000 L 490.000 746.000 L 491.000 747.000 L 492.000 748.000 L 493.000 749.000 L 493.000 750.000 L 494.000 751.000 L 495.000 752.000 L 495.000 753.000 L 496.000 754.000 L 497.000 755.000 L 498.000 756.000 L 498.000 757.000 L 499.000 758.000 L 500.000 759.000 L 501.000 760.000 L 501.000 761.000 L 502.000 762.000 L 503.000 763.000 L 504.000 764.000 L 504.000 765.000 L 505.000 766.000 L 506.000 767.000 L 507.000 768.000 L 507.000 769.000 L 508.000 770.000 L 509.000 771.000 L 510.000 772.000 L 511.000 773.000 L 512.000 774.000 L 513.000 773.000 L 514.000 772.000 L 514.000 771.000 L 515.000 770.000 L 516.000 769.000 L 517.000 768.000 L 518.000 767.000 L 518.000 766.000 L 519.000 765.000 L 520.000 764.000 L 521.000 763.000 L 521.000 762.000 L 522.000 761.000 L 523.000 760.000 L 524.000 759.000 L 524.000 758.000 L 525.000 757.000 L 526.000 756.000 L 526.000 755.000 L 527.000 754.000 L 528.000 753.000 L 529.000 752.000 L 529.000 751.000 L 530.000 750.000 L 531.000 749.000 L 531.000 748.000 L 532.000 747.000 L 533.000 746.000 L 533.000 745.000 L 534.000 744.000 L 535.000 743.000 L 535.000 742.000 L 536.000 741.000 L 537.000 740.000 L 538.000 739.000 L 538.000 738.000 L 539.000 737.000 L 540.000 736.000 L 540.000 735.000 L 541.000 734.000 L 542.000 733.000 L 542.000 732.000 L 543.000 731.000 L 544.000 730.000 L 544.000 729.000 L 545.000 728.000 L 545.000 727.000 L 546.000 726.000 L 547.000 725.000 L 547.000 724.000 L 548.000 723.000 L 549.000 722.000 L 549.000 721.000 L 550.000 720.000 L 551.000 719.000 L 551.000 718.000 L 552.000 717.000 L 553.000 716.000 L 553.000 715.000 L 554.000 714.000 L 554.000 713.000 L 555.000 712.000 L 556.000 711.000 L 556.000 710.000 L 557.000 709.000 L 557.000 708.000 L 558.000 707.000 L 559.000 706.000 L 559.000 705.000 L 560.000 704.000 L 560.000 703.000 L 561.000 702.000 L 561.000 701.000 L 562.000 700.000 L 563.000 699.000 L 563.000 698.000 L 564.000 697.000 L 564.000 696.000 L 565.000 695.000 L 565.000 694.000 L 566.000 693.000 L 567.000 692.000 L 567.000 691.000 L 568.000 690.000 L 568.000 689.000 L 569.000 688.000 L 569.000 687.000 L 570.000 686.000 L 570.000 685.000 L 571.000 684.000 L 571.000 683.000 L 572.000 682.000 L 572.000 681.000 L 573.000 680.000 L 573.000 679.000 L 574.000 678.000 L 574.000 677.000 L 575.000 676.000 L 575.000 675.000 L 576.000 674.000 L 576.000 673.000 L 577.000 672.000 L 577.000 671.000 L 578.000 670.000 L 578.000 669.000 L 579.000 668.000 L 579.000 667.000 L 580.000 666.000 L 580.000 665.000 L 581.000 664.000 L 581.000 663.000 L 582.000 662.000 L 582.000 661.000 L 583.000 660.000 L 583.000 659.000 L 583.000 658.000 L 584.000 657.000 L 584.000 656.000 L 585.000 655.000 L 585.000 654.000 L 586.000 653.000 L 586.000 652.000 L 586.000 651.000 L 587.000 650.000 L 587.000 649.000 L 588.000 648.000 L 588.000 647.000 L 588.000 646.000 L 589.000 645.000 L 589.000 644.000 L 589.000 643.000 L 590.000 642.000 L 590.000 641.000 L 591.000 640.000 L 591.000 639.000 L 591.000 638.000 L 590.000 638.000 L 589.000 637.000 L 588.000 637.000 L 587.000 636.000 L 586.000 636.000 L 585.000 636.000 L 584.000 635.000 L 583.000 635.000 L 582.000 635.000 L 581.000 634.000 L 580.000 634.000 L 579.000 634.000 L 578.000 633.000 L 577.000 633.000 L 576.000 633.000 L 575.000 632.000 L 574.000 632.000 L 573.000 632.000 L 572.000 632.000 L 571.000 631.000 L 570.000 631.000 L 569.000 631.000 L 568.000 630.000 L 567.000 630.000 L 566.000 630.000 L 565.000 630.000 L 564.000 629.000 L 563.000 629.000 L 562.000 629.000 L 561.000 629.000 L 560.000 628.000 L 559.000 628.000 L 558.000 628.000 L 557.000 628.000 L 556.000 628.000 L 555.000 627.000 L 554.000 627.000 L 553.000 627.000 L 552.000 627.000 L 551.000 627.000 L 550.000 626.000 L 549.000 626.000 L 548.000 626.000 L 547.000 626.000 L 546.000 626.000 L 545.000 626.000 L 544.000 626.000 L 543.000 625.000 L 542.000 625.000 L 541.000 625.000 L 540.000 625.000 L 539.000 625.000 L 538.000 625.000 L 537.000 625.000 L 536.000 625.000 L 535.000 624.000 L 534.000 624.000 L 533.000 624.000 L 532.000 624.000 L 531.000 624.000 L 530.000 624.000 L 529.000 624.000 L 528.000 624.000 L 527.000 624.000 L 526.000 624.000 L 525.000 624.000 L 524.000 624.000 L 523.000 624.000 L 522.000 623.000 L 521.000 623.000 L 520.000 623.000 L 519.000 623.000 L 518.000 623.000 L 517.000 623.000 L 516.000 623.000 L 515.000 623.000 L 514.000 623.000 L 513.000 623.000 L 512.000 623.000 L 511.000 623.000 L 510.000 623.000 L 509.000 623.000 L 508.000 623.000 L 507.000 623.000 L 506.000 623.000 L 505.000 623.000 L 504.000 623.000 L 503.000 623.000 Z" fill="#F9C903"/>
  </g>
  <circle cx="306.235" cy="451.151" r="17.270" fill="#ffffff"/>
  <circle cx="775.819" cy="451.240" r="17.262" fill="#ffffff"/>
</svg>